Coordinates
version=1
nRows=11
nColumns=36
inDegrees=yes

Units are S.I. units (second, meters, Newtons, ...)
If the header above contains a line with 'inDegrees', this indicates whether rotational values are in degrees (yes) or radians (no).

endheader
time	pelvis_tilt	pelvis_list	pelvis_rotation	pelvis_tx	pelvis_ty	pelvis_tz	hip_flexion_r	hip_adduction_r	hip_rotation_r	knee_angle_r	knee_angle_r_beta	ankle_angle_r	subtalar_angle_r	mtp_angle_r	hip_flexion_l	hip_adduction_l	hip_rotation_l	knee_angle_l	knee_angle_l_beta	ankle_angle_l	subtalar_angle_l	mtp_angle_l	lumbar_extension	lumbar_bending	lumbar_rotation	arm_flex_r	arm_add_r	arm_rot_r	elbow_flex_r	pro_sup_r	arm_flex_l	arm_add_l	arm_rot_l	elbow_flex_l	pro_sup_l
      4.15000000	    -10.08329893	     -0.98707954	     -4.49231128	      0.68020768	      0.54853049	     -0.08816221	     75.94430642	    -12.34418694	      4.54811087	    111.70100274	      1.94955028	     41.39741710	    -11.47599347	     -7.49999987	     79.95811862	    -20.44074707	      2.44458790	    113.56306136	      1.98204933	     37.61430333	    -12.56150852	     -7.49999987	    -43.52687240	     -2.81676343	      0.70068453	     62.95932160	    -15.64901452	      8.93209155	     57.59739969	     85.83695589	     66.93121863	    -14.16452860	     23.72669874	     52.42027700	     70.92943298
      4.16666670	     -9.20574475	     -0.58562244	     -4.61419956	      0.68066039	      0.57054553	     -0.08692953	     71.78329132	    -12.24504694	      3.85586721	    107.29297589	      1.87261569	     40.87370481	    -11.72145546	     -7.49999987	     75.97271864	    -20.24650640	      0.08441452	    109.17572693	      1.90547590	     35.76041292	    -14.43025143	     -7.49999987	    -44.50871086	     -3.12577548	      0.57144427	     60.80508241	    -15.81904668	      8.49806578	     51.15744705	     85.57008259	     66.09775668	    -14.57767774	     23.97794730	     45.76947107	     70.44556403
      4.18333330	     -8.19098018	     -0.48595284	     -4.82955271	      0.67794093	      0.59554773	     -0.08579021	     67.31505884	    -11.86584372	      2.86390380	    102.44643001	      1.78802751	     40.93401608	    -11.05512220	     -7.49999987	     72.06273766	    -19.77417812	     -1.30025781	    104.67436944	      1.82691239	     33.56124108	    -16.28660375	     -7.49999987	    -45.53521120	     -3.28998990	      1.14115685	     58.37963883	    -16.26695843	      8.58402744	     44.77444628	     85.27592240	     65.22515273	    -14.87039338	     25.43029134	     38.94150510	     69.92913229
      4.20000000	     -6.86764401	     -0.43173486	     -4.40692131	      0.67800022	      0.61863095	     -0.08511951	     63.70987563	    -11.29481100	      2.58922559	     98.81973839	      1.72472980	     39.25695317	    -12.24659935	     -7.49999987	     67.52626742	    -19.10582156	     -2.34119614	    100.37003248	      1.75178754	     32.73780857	    -16.03968429	     -7.49999987	    -46.12930983	     -3.35423398	      1.96887089	     54.35528736	    -17.82813381	     10.07450940	     39.52748355	     80.35750255	     65.71897271	    -15.03884766	     38.39963190	     29.67334313	     57.45829929
      4.21666670	     -5.70309092	     -0.30399594	     -3.57126540	      0.67812221	      0.64148069	     -0.08653307	     60.25557612	    -11.16087625	      2.27087099	     95.36375445	      1.66441150	     36.43029421	    -14.59166370	     -7.49999987	     62.81328839	    -18.34920496	     -3.65500913	     95.38517259	      1.66478532	     32.36043569	    -15.19111768	     -7.49999987	    -46.65434001	     -2.68168470	      1.32548320	     50.50420376	    -17.66379178	     10.28657256	     35.74859130	     80.29294264	     62.78322553	    -16.13018858	     39.66495286	     26.00383587	     57.35358579
      4.23333330	     -4.41495384	     -0.05685336	     -2.86260892	      0.68720801	      0.66932834	     -0.09098956	     55.47265588	    -11.67257309	      1.60529069	     90.46202301	      1.57886015	     34.15179582	    -15.63353075	     -7.49999987	     57.14125637	    -17.51777117	     -5.74815159	     89.60134631	      1.56383851	     32.07378069	    -14.15594682	     -7.49999987	    -46.96209695	     -2.02426183	      0.90385057	     45.82106531	    -17.77985536	     10.78645865	     31.75758236	     80.19192996	     58.76737048	    -16.71455958	     41.81553832	     23.09333736	     57.36622546
      4.25000000	     -2.98010353	      0.03195171	     -2.21255426	      0.68915794	      0.69685269	     -0.09139036	     49.80115901	    -12.20061124	      0.34270788	     84.52160911	      1.47518037	     32.03624286	    -15.68095188	     -7.49999987	     51.65361599	    -16.39344891	     -7.12115633	     83.78352933	      1.46229845	     30.39380574	    -14.20759222	     -7.49999987	    -47.26354744	     -1.38924711	      0.67358053	     40.97899591	    -17.71242327	     11.32834873	     28.47179304	     80.01391915	     54.44784782	    -17.15578943	     43.84909461	     21.08731429	     57.39592509
      4.26666670	     -1.51175512	      0.10898380	     -2.02954784	      0.70034511	      0.71898061	     -0.09434840	     43.83858775	    -12.84159082	     -0.99526298	     78.48130723	      1.36975721	     30.22664744	    -15.44332023	     -7.49999987	     46.23146355	    -15.37559530	     -8.27994259	     78.56062174	      1.37114151	     29.07930178	    -14.34011310	     -7.49999987	    -46.81307114	     -0.78881915	      0.64405325	     35.41287051	    -17.62423517	     11.87372825	     25.56108462	     79.72236067	     48.78744630	    -17.49565133	     45.63118828	     19.77175492	     57.33873645
      4.28333330	     -0.29527195	      0.10808688	     -1.66925160	      0.70086991	      0.74046192	     -0.09665606	     38.53721563	    -13.38109648	     -2.61186336	     72.69888690	      1.26883494	     28.39431510	    -15.18132451	     -7.49999987	     41.49018230	    -14.23608550	     -9.04622495	     73.31539295	      1.27959500	     27.64855805	    -14.61134287	     -7.49999987	    -45.85656266	     -0.06832461	      0.32837256	     30.19945165	    -17.32460228	     12.58976321	     23.07864783	     79.32197682	     43.45051739	    -17.85385312	     47.14334718	     18.93242044	     57.17098394
      4.30000000	      0.65753789	      0.00381624	     -1.58620193	      0.70428419	      0.76563948	     -0.09620478	     33.34756768	    -13.40939393	     -4.33989943	     66.19053590	      1.15524279	     26.34794712	    -14.47205103	     -7.49999987	     36.84511287	    -13.24035441	     -9.58572959	     67.52446305	      1.17852421	     25.78921276	    -14.67503839	     -7.49999987	    -44.47219935	      0.45954429	     -0.31357119	     25.34030741	    -16.44214972	     13.20663564	     21.02911108	     78.67044115	     38.05972251	    -18.47148190	     48.27413372	     18.40899423	     56.79618769
      4.31666670	      1.47157252	     -0.03330514	     -1.65416986	      0.71199812	      0.78544928	     -0.09567636	     28.35029599	    -13.23454290	     -5.99205673	     59.71651848	      1.04224987	     24.19545117	    -13.40684693	     -7.49999987	     32.26421717	    -12.46879540	    -10.35776077	     61.76817795	      1.07805808	     23.62626906	    -14.60649924	     -7.49999987	    -42.08283634	      0.84400162	     -1.69986322	     21.19731660	    -15.34918113	     21.66065879	     17.50535757	     66.63668312	     31.07800106	    -19.58272689	     47.91775638	     19.43045357	     48.09114978
